pinch_force_states
version=1
nRows=15
nColumns=45
inDegrees=yes

# SIMM Motion File Header:
name pinch_force_states
datacolumns 45
datarows 15
otherdata 1
range 0.09999746 0.10139746
endheader
time	deviation	flexion	wrist_hand_r1	wrist_hand_r3	cmc_flexion	cmc_abduction	mp_flexion	ip_flexion	deviation_u	flexion_u	wrist_hand_r1_u	wrist_hand_r3_u	cmc_flexion_u	cmc_abduction_u	mp_flexion_u	ip_flexion_u	ECRL.activation	ECRL.fiber_length	ECRB.activation	ECRB.fiber_length	ECU.activation	ECU.fiber_length	FCR.activation	FCR.fiber_length	FCU.activation	FCU.fiber_length	EPL.activation	EPL.fiber_length	EPB.activation	EPB.fiber_length	FPL.activation	FPL.fiber_length	APL.activation	APL.fiber_length	APB.activation	APB.fiber_length	FPB.activation	FPB.fiber_length	OPP.activation	OPP.fiber_length	ADPt.activation	ADPt.fiber_length	ADPo.activation	ADPo.fiber_length
      0.09999746	      1.03754318	     -3.07216664	      1.39271364	     -1.53608332	    -13.29143594	    -13.14218543	     16.50926826	     46.18150299	      4.24540999	    -11.22147653	      5.63576801	     -5.61073826	      7.24008327	     25.47168822	    -17.59197773	     25.78778332	      0.01238483	      0.06421383	      0.36622056	      0.05507924	      0.99862122	      0.05921867	      0.01000000	      0.05126298	      0.60768366	      0.03035686	      0.47396701	      0.05248776	      0.07694563	      0.06431510	      1.00000000	      0.05416365	      0.01293340	      0.07129556	      0.08647987	      0.05292450	      0.12944159	      0.05061957	      0.51645636	      0.04475487	      0.99666356	      0.03892860	      0.87323913	      0.03211780
      0.10009746	      1.03796624	     -3.07329548	      1.39327524	     -1.53664774	    -13.29070822	    -13.13962699	     16.50750818	     46.18408634	      4.21589185	    -11.35496934	      5.59653182	     -5.67748467	      7.31414938	     25.69633690	    -17.60975176	     25.87908520	      0.01238483	      0.06421403	      0.36622056	      0.05507929	      0.99862122	      0.05921824	      0.01000000	      0.05126308	      0.60768366	      0.03035670	      0.47396701	      0.05248802	      0.07694563	      0.06431504	      1.00000000	      0.05416386	      0.01293340	      0.07129571	      0.08647987	      0.05292430	      0.12944159	      0.05061974	      0.51645636	      0.04475480	      0.99666356	      0.03892890	      0.87323913	      0.03211813
      0.10019746	      1.03838638	     -3.07443755	      1.39383297	     -1.53721878	    -13.28997315	    -13.13704628	     16.50574629	     46.18667879	      4.18705828	    -11.48613657	      5.55820543	     -5.74306828	      7.38714554	     25.91728853	    -17.62819096	     25.96977320	      0.01238483	      0.06421422	      0.36622056	      0.05507934	      0.99862122	      0.05921782	      0.01000000	      0.05126319	      0.60768366	      0.03035654	      0.47396701	      0.05248828	      0.07694563	      0.06431498	      1.00000000	      0.05416406	      0.01293340	      0.07129586	      0.08647987	      0.05292410	      0.12944159	      0.05061990	      0.51645636	      0.04475473	      0.99666356	      0.03892920	      0.87323913	      0.03211845
      0.10029746	      1.03880367	     -3.07559263	      1.39438692	     -1.53779631	    -13.28923083	    -13.13444366	     16.50398252	     46.18928028	      4.15891034	    -11.61496726	      5.52079023	     -5.80748363	      7.45906258	     26.13452250	    -17.64728250	     26.05982807	      0.01238483	      0.06421441	      0.36622056	      0.05507939	      0.99862122	      0.05921739	      0.01000000	      0.05126330	      0.60768366	      0.03035638	      0.47396701	      0.05248854	      0.07694563	      0.06431493	      1.00000000	      0.05416427	      0.01293340	      0.07129601	      0.08647987	      0.05292390	      0.12944159	      0.05062007	      0.51645636	      0.04475465	      0.99666356	      0.03892950	      0.87323913	      0.03211877
      0.10039746	      1.03921818	     -3.07676047	      1.39493716	     -1.53838023	    -13.28848137	    -13.13181950	     16.50221681	     46.19189074	      4.13144892	    -11.74145096	      5.48428734	     -5.87072548	      7.52989169	     26.34801898	    -17.66701355	     26.14923081	      0.01238483	      0.06421460	      0.36622056	      0.05507944	      0.99862122	      0.05921697	      0.01000000	      0.05126341	      0.60768366	      0.03035622	      0.47396701	      0.05248880	      0.07694563	      0.06431487	      1.00000000	      0.05416447	      0.01293340	      0.07129616	      0.08647987	      0.05292370	      0.12944159	      0.05062023	      0.51645636	      0.04475458	      0.99666356	      0.03892980	      0.87323913	      0.03211909
      0.10049746	      1.03962998	     -3.07794084	      1.39548380	     -1.53897042	    -13.28772488	    -13.12917418	     16.50044910	     46.19451010	      4.10467475	    -11.86557770	      5.44869770	     -5.93278885	      7.59962432	     26.55775890	    -17.68737130	     26.23796270	      0.01238483	      0.06421478	      0.36622056	      0.05507949	      0.99862122	      0.05921655	      0.01000000	      0.05126353	      0.60768366	      0.03035607	      0.47396701	      0.05248906	      0.07694563	      0.06431482	      1.00000000	      0.05416467	      0.01293340	      0.07129631	      0.08647987	      0.05292349	      0.12944159	      0.05062040	      0.51645636	      0.04475450	      0.99666356	      0.03893010	      0.87323913	      0.03211941
      0.10059746	      1.04003914	     -3.07913350	      1.39602693	     -1.53956675	    -13.28696148	    -13.12650808	     16.49867932	     46.19713830	      4.07858838	    -11.98733798	      5.41402201	     -5.99366899	      7.66825224	     26.76372399	    -17.70834292	     26.32600529	      0.01238483	      0.06421496	      0.36622056	      0.05507954	      0.99862122	      0.05921612	      0.01000000	      0.05126365	      0.60768366	      0.03035591	      0.47396701	      0.05248932	      0.07694563	      0.06431476	      1.00000000	      0.05416488	      0.01293340	      0.07129645	      0.08647987	      0.05292329	      0.12944159	      0.05062056	      0.51645636	      0.04475442	      0.99666356	      0.03893040	      0.87323913	      0.03211973
      0.10069746	      1.04044572	     -3.08033823	      1.39656664	     -1.54016911	    -13.28619127	    -13.12382156	     16.49690741	     46.19977528	      4.05319021	    -12.10672280	      5.38026075	     -6.05336140	      7.73576752	     26.96589670	    -17.72991559	     26.41334040	      0.01238483	      0.06421513	      0.36622056	      0.05507959	      0.99862122	      0.05921570	      0.01000000	      0.05126377	      0.60768366	      0.03035576	      0.47396701	      0.05248959	      0.07694563	      0.06431470	      1.00000000	      0.05416508	      0.01293340	      0.07129660	      0.08647987	      0.05292308	      0.12944159	      0.05062073	      0.51645636	      0.04475434	      0.99666356	      0.03893070	      0.87323913	      0.03212006
      0.10079746	      1.04084980	     -3.08155477	      1.39710301	     -1.54077738	    -13.28541436	    -13.12111502	     16.49513331	     46.20242095	      4.02848047	    -12.22372364	      5.34741419	     -6.11186182	      7.80216252	     27.16426028	    -17.75207651	     26.49995015	      0.01238483	      0.06421530	      0.36622056	      0.05507963	      0.99862122	      0.05921528	      0.01000000	      0.05126390	      0.60768366	      0.03035560	      0.47396701	      0.05248985	      0.07694563	      0.06431465	      1.00000000	      0.05416528	      0.01293340	      0.07129674	      0.08647987	      0.05292286	      0.12944159	      0.05062089	      0.51645636	      0.04475427	      0.99666356	      0.03893100	      0.87323913	      0.03212038
      0.10089746	      1.04125144	     -3.08278289	      1.39763615	     -1.54139145	    -13.28463088	    -13.11838884	     16.49335697	     46.20507524	      4.00445923	    -12.33833244	      5.31548239	     -6.16916622	      7.86742992	     27.35879873	    -17.77481288	     26.58581691	      0.01238483	      0.06421546	      0.36622056	      0.05507968	      0.99862122	      0.05921486	      0.01000000	      0.05126403	      0.60768366	      0.03035545	      0.47396701	      0.05249011	      0.07694563	      0.06431459	      1.00000000	      0.05416548	      0.01293340	      0.07129689	      0.08647987	      0.05292265	      0.12944159	      0.05062106	      0.51645636	      0.04475419	      0.99666356	      0.03893131	      0.87323913	      0.03212070
      0.10099746	      1.04165072	     -3.08402236	      1.39816614	     -1.54201118	    -13.28384092	    -13.11564339	     16.49157833	     46.20773809	      3.98112641	    -12.45054165	      5.28446520	     -6.22527083	      7.93156268	     27.54949684	    -17.79811193	     26.67092336	      0.01238483	      0.06421562	      0.36622056	      0.05507972	      0.99862122	      0.05921443	      0.01000000	      0.05126416	      0.60768366	      0.03035530	      0.47396701	      0.05249037	      0.07694563	      0.06431453	      1.00000000	      0.05416569	      0.01293340	      0.07129703	      0.08647987	      0.05292243	      0.12944159	      0.05062122	      0.51645636	      0.04475411	      0.99666356	      0.03893161	      0.87323913	      0.03212102
      0.10109746	      1.04204769	     -3.08527292	      1.39869308	     -1.54263646	    -13.28304460	    -13.11287907	     16.48979733	     46.21040940	      3.95848175	    -12.56034419	      5.25436224	     -6.28017209	      7.99455409	     27.73634013	    -17.82196091	     26.75525245	      0.01238483	      0.06421577	      0.36622056	      0.05507977	      0.99862122	      0.05921401	      0.01000000	      0.05126430	      0.60768366	      0.03035515	      0.47396701	      0.05249064	      0.07694563	      0.06431448	      1.00000000	      0.05416589	      0.01293340	      0.07129718	      0.08647987	      0.05292221	      0.12944159	      0.05062139	      0.51645636	      0.04475402	      0.99666356	      0.03893191	      0.87323913	      0.03212134
      0.10119746	      1.04244244	     -3.08653434	      1.39921704	     -1.54326717	    -13.28224204	    -13.11009625	     16.48801392	     46.21308911	      3.93652484	    -12.66773343	      5.22517295	     -6.33386671	      8.05639770	     27.91931491	    -17.84634707	     26.83878744	      0.01238483	      0.06421592	      0.36622056	      0.05507981	      0.99862122	      0.05921359	      0.01000000	      0.05126444	      0.60768366	      0.03035500	      0.47396701	      0.05249090	      0.07694563	      0.06431442	      1.00000000	      0.05416609	      0.01293340	      0.07129732	      0.08647987	      0.05292199	      0.12944159	      0.05062155	      0.51645636	      0.04475394	      0.99666356	      0.03893222	      0.87323913	      0.03212166
      0.10129746	      1.04283502	     -3.08780639	      1.39973814	     -1.54390319	    -13.28143336	    -13.10729533	     16.48622805	     46.21577713	      3.91525514	    -12.77270324	      5.19689655	     -6.38635162	      8.11708739	     28.09840824	    -17.87125772	     26.92151185	      0.01238483	      0.06421607	      0.36622056	      0.05507986	      0.99862122	      0.05921317	      0.01000000	      0.05126459	      0.60768366	      0.03035485	      0.47396701	      0.05249116	      0.07694563	      0.06431436	      1.00000000	      0.05416630	      0.01293340	      0.07129746	      0.08647987	      0.05292176	      0.12944159	      0.05062172	      0.51645636	      0.04475386	      0.99666356	      0.03893253	      0.87323913	      0.03212199
      0.10139746	      1.04322551	     -3.08908880	      1.40025645	     -1.54454440	    -13.28061867	    -13.10447670	     16.48443965	     46.21847339	      3.89467191	    -12.87524795	      5.16953205	     -6.43762398	      8.17661732	     28.27360794	    -17.89668017	     27.00340952	      0.01238483	      0.06421621	      0.36622056	      0.05507990	      0.99862122	      0.05921275	      0.01000000	      0.05126474	      0.60768366	      0.03035471	      0.47396701	      0.05249142	      0.07694563	      0.06431431	      1.00000000	      0.05416650	      0.01293340	      0.07129760	      0.08647987	      0.05292153	      0.12944159	      0.05062189	      0.51645636	      0.04475378	      0.99666356	      0.03893283	      0.87323913	      0.03212231
